{"title":"2 States 2014 Hindi 1080p Bluray x265 HEVC DTS...Hon3y","uid":10494000,"size":3640744797,"categoryP":"video","categoryS":"hd___movies","magnet":"?xt=urn:btih:8e5ed626def1f0a563d87c111807306cc482f6b2&amp;dn=2+States+2014+Hindi+1080p+Bluray+x265+HEVC+DTS...Hon3y&amp;tr=udp%3A%2F%2Ftracker.openbittorrent.com%3A80&amp;tr=udp%3A%2F%2Fopen.demonii.com%3A1337&amp;tr=udp%3A%2F%2Ftracker.coppersurfer.tk%3A6969&amp;tr=udp%3A%2F%2Fexodus.desync.com%3A6969","seeders":2,"leechers":1,"uploader":"honey8ee","files":5,"time":1404581196,"description":"www.imdb.com/title/tt2372678/]\n\nSource                                   : BD50 Thanks Rudos\nFormat                                   : Matroska\nFormat version                           : Version 4 / Version 2\nFile size                                : 3.35 GiB\nDuration                                 : 2h 29mn\nOverall bit rate                         : 3 208 Kbps\n\n\n\nVideo\nID                                       : 1\nFormat                                   : V_MPEGH/ISO/HEVC\nCodec ID                                 : V_MPEGH/ISO/HEVC\nDuration                                 : 2h 29mn\nBit rate                                 : 2 376 Kbps\nWidth                                    : 1 920 pixels\nHeight                                   : 816 pixels\nDisplay aspect ratio                     : 2.35:1\nFrame rate mode                          : Constant\nFrame rate                               : 23.976 fps\nBits/(Pixel*Frame)                       : 0.063\nStream size                              : 2.48 GiB (74%)\nDefault                                  : Yes\nForced                                   : No\n\nAudio\nID                                       : 2\nFormat                                   : DTS\nFormat/Info                              : Digital Theater Systems\nMode                                     : 16\nFormat settings, Endianness              : Big\nCodec ID                                 : A_DTS\nDuration                                 : 2h 29mn\nBit rate mode                            : Constant\nBit rate                                 : 768 Kbps\nChannel(s)                               : 6 channels\nChannel positions                        : Front: L C R, Side: L R, LFE\nSampling rate                            : 48.0 KHz\nBit depth                                : 24 bits\nCompression mode                         : Lossy\nStream size                              : 821 MiB (24%)\nDefault                                  : Yes\nForced                                   : No\n &lt;a href=&quot;\nhttp://someimage.com/XWYmjdD&quot; rel=&quot;nofollow&quot; target=&quot;_NEW&quot;&gt;\nhttp://someimage.com/XWYmjdD&lt;/a&gt; &lt;a href=&quot;\nhttp://someimage.com/hVXIsFa&quot; rel=&quot;nofollow&quot; target=&quot;_NEW&quot;&gt;\nhttp://someimage.com/hVXIsFa&lt;/a&gt; &lt;a href=&quot;\nhttp://someimage.com/JC4LdAc&quot; rel=&quot;nofollow&quot; target=&quot;_NEW&quot;&gt;\nhttp://someimage.com/JC4LdAc&lt;/a&gt; &lt;a href=&quot;\nhttp://someimage.com/GuPj6ci&quot; rel=&quot;nofollow&quot; target=&quot;_NEW&quot;&gt;\nhttp://someimage.com/GuPj6ci&lt;/a&gt; &lt;a href=&quot;\nhttp://someimage.com/n9InQwv&quot; rel=&quot;nofollow&quot; target=&quot;_NEW&quot;&gt;\nhttp://someimage.com/n9InQwv&lt;/a&gt; &lt;a href=&quot;\nhttp://someimage.com/UQOlm3e&quot; rel=&quot;nofollow&quot; target=&quot;_NEW&quot;&gt;\nhttp://someimage.com/UQOlm3e&lt;/a&gt; &lt;a href=&quot;\nhttp://someimage.com/phoCnys&quot; rel=&quot;nofollow&quot; target=&quot;_NEW&quot;&gt;\nhttp://someimage.com/phoCnys&lt;/a&gt; &lt;a href=&quot;\nhttp://someimage.com/SPASMHA&quot; rel=&quot;nofollow&quot; target=&quot;_NEW&quot;&gt;\nhttp://someimage.com/SPASMHA&lt;/a&gt; &lt;a href=&quot;\nhttp://someimage.com/JZ2r0e7&quot; rel=&quot;nofollow&quot; target=&quot;_NEW&quot;&gt;\nhttp://someimage.com/JZ2r0e7&lt;/a&gt; &lt;a href=&quot;\nhttp://someimage.com/8XGXEDH&quot; rel=&quot;nofollow&quot; target=&quot;_NEW&quot;&gt;\nhttp://someimage.com/8XGXEDH&lt;/a&gt; &lt;a href=&quot;\nhttp://someimage.com/fSxt8mM&quot; rel=&quot;nofollow&quot; target=&quot;_NEW&quot;&gt;\nhttp://someimage.com/fSxt8mM&lt;/a&gt; &lt;a href=&quot;\nhttp://someimage.com/coJICsV&quot; rel=&quot;nofollow&quot; target=&quot;_NEW&quot;&gt;\nhttp://someimage.com/coJICsV&lt;/a&gt;","torrent":{"xt":"urn:btih:8e5ed626def1f0a563d87c111807306cc482f6b2","amp;dn":"2+States+2014+Hindi+1080p+Bluray+x265+HEVC+DTS...Hon3y","amp;tr":["udp%3A%2F%2Ftracker.openbittorrent.com%3A80","udp%3A%2F%2Fopen.demonii.com%3A1337","udp%3A%2F%2Ftracker.coppersurfer.tk%3A6969","udp%3A%2F%2Fexodus.desync.com%3A6969"],"infoHash":"8e5ed626def1f0a563d87c111807306cc482f6b2","infoHashBuffer":{"type":"Buffer","data":[142,94,214,38,222,241,240,165,99,216,124,17,24,7,48,108,196,130,246,178]},"announce":[],"urlList":[]}}